<svg width="3622" height="3622" viewBox="0 0 3622 3622" fill="none" xmlns="http://www.w3.org/2000/svg">
<g clip-path="url(#clip0_109_6518)">
<circle cx="1566.78" cy="1510.13" r="15.4958" transform="rotate(-36 1566.78 1510.13)" fill="white" fill-opacity="0.1"/>
<circle cx="1436.4" cy="1711" r="15.4958" transform="rotate(-72 1436.4 1711)" fill="white" fill-opacity="0.1"/>
<circle cx="1449" cy="1950.14" r="15.4958" transform="rotate(-108 1449 1950.14)" fill="white" fill-opacity="0.1"/>
<circle cx="1599.75" cy="2136.2" r="15.4958" transform="rotate(-144 1599.75 2136.2)" fill="white" fill-opacity="0.1"/>
<circle cx="1831.08" cy="2198.12" r="15.4958" transform="rotate(180 1831.08 2198.12)" fill="white" fill-opacity="0.1"/>
<circle cx="2054.62" cy="2112.24" r="15.4958" transform="rotate(144 2054.62 2112.24)" fill="white" fill-opacity="0.1"/>
<circle cx="2184.99" cy="1911.37" r="15.4958" transform="rotate(108 2184.99 1911.37)" fill="white" fill-opacity="0.1"/>
<circle cx="2172.39" cy="1672.24" r="15.4958" transform="rotate(72 2172.39 1672.24)" fill="white" fill-opacity="0.1"/>
<circle cx="2021.64" cy="1486.17" r="15.4958" transform="rotate(36 2021.64 1486.17)" fill="white" fill-opacity="0.1"/>
<circle cx="1790.32" cy="1424.26" r="15.4958" fill="white" fill-opacity="0.1"/>
<circle cx="1433.3" cy="1482.77" r="26.3185" transform="rotate(-47.5036 1433.3 1482.77)" fill="white" fill-opacity="0.1"/>
<circle cx="1312.34" cy="1767.33" r="26.3185" transform="rotate(-83.5036 1312.34 1767.33)" fill="white" fill-opacity="0.1"/>
<circle cx="1381.73" cy="2068.64" r="26.3185" transform="rotate(-119.504 1381.73 2068.64)" fill="white" fill-opacity="0.1"/>
<circle cx="1614.98" cy="2271.61" r="26.3185" transform="rotate(-155.504 1614.98 2271.61)" fill="white" fill-opacity="0.1"/>
<circle cx="1922.99" cy="2298.72" r="26.3185" transform="rotate(168.496 1922.99 2298.72)" fill="white" fill-opacity="0.1"/>
<circle cx="2188.1" cy="2139.61" r="26.3185" transform="rotate(132.496 2188.1 2139.61)" fill="white" fill-opacity="0.1"/>
<circle cx="2309.06" cy="1855.06" r="26.3185" transform="rotate(96.4964 2309.06 1855.06)" fill="white" fill-opacity="0.1"/>
<circle cx="2239.67" cy="1553.75" r="26.3185" transform="rotate(60.4964 2239.67 1553.75)" fill="white" fill-opacity="0.1"/>
<circle cx="2006.42" cy="1350.78" r="26.3185" transform="rotate(24.4964 2006.42 1350.78)" fill="white" fill-opacity="0.1"/>
<circle cx="1698.41" cy="1323.67" r="26.3185" transform="rotate(-11.5036 1698.41 1323.67)" fill="white" fill-opacity="0.1"/>
<circle cx="1277.78" cy="1525.55" r="36.4079" transform="rotate(-61.2791 1277.78 1525.55)" fill="white" fill-opacity="0.1"/>
<circle cx="1211.66" cy="1893.34" r="36.4079" transform="rotate(-97.2791 1211.66 1893.34)" fill="white" fill-opacity="0.1"/>
<circle cx="1374.36" cy="2229.77" r="36.4079" transform="rotate(-133.279 1374.36 2229.77)" fill="white" fill-opacity="0.1"/>
<circle cx="1703.72" cy="2406.29" r="36.4079" transform="rotate(-169.279 1703.72 2406.29)" fill="white" fill-opacity="0.1"/>
<circle cx="2073.95" cy="2355.52" r="36.4079" transform="rotate(154.721 2073.95 2355.52)" fill="white" fill-opacity="0.1"/>
<circle cx="2343.62" cy="2096.83" r="36.4079" transform="rotate(118.721 2343.62 2096.83)" fill="white" fill-opacity="0.1"/>
<circle cx="2409.73" cy="1729.03" r="36.4079" transform="rotate(82.7209 2409.73 1729.03)" fill="white" fill-opacity="0.1"/>
<circle cx="2247.04" cy="1392.62" r="36.4079" transform="rotate(46.7209 2247.04 1392.62)" fill="white" fill-opacity="0.1"/>
<circle cx="1917.67" cy="1216.09" r="36.4079" transform="rotate(10.7209 1917.67 1216.09)" fill="white" fill-opacity="0.1"/>
<circle cx="1547.45" cy="1266.86" r="36.4079" transform="rotate(-25.2791 1547.45 1266.86)" fill="white" fill-opacity="0.1"/>
<circle cx="1117.78" cy="1627.39" r="48.8117" transform="rotate(-75.5851 1117.78 1627.39)" fill="white" fill-opacity="0.1"/>
<circle cx="1142.08" cy="2069.78" r="48.8117" transform="rotate(-111.585 1142.08 2069.78)" fill="white" fill-opacity="0.1"/>
<circle cx="1421.78" cy="2413.4" r="48.8117" transform="rotate(-147.585 1421.78 2413.4)" fill="white" fill-opacity="0.1"/>
<circle cx="1850.02" cy="2526.98" r="48.8117" transform="rotate(176.415 1850.02 2526.98)" fill="white" fill-opacity="0.1"/>
<circle cx="2263.24" cy="2367.17" r="48.8117" transform="rotate(140.415 2263.24 2367.17)" fill="white" fill-opacity="0.1"/>
<circle cx="2503.61" cy="1994.99" r="48.8117" transform="rotate(104.415 2503.61 1994.99)" fill="white" fill-opacity="0.1"/>
<circle cx="2479.31" cy="1552.6" r="48.8117" transform="rotate(68.4149 2479.31 1552.6)" fill="white" fill-opacity="0.1"/>
<circle cx="2199.63" cy="1208.99" r="48.8117" transform="rotate(32.4149 2199.63 1208.99)" fill="white" fill-opacity="0.1"/>
<circle cx="1771.38" cy="1095.39" r="48.8117" transform="rotate(-3.58511 1771.38 1095.39)" fill="white" fill-opacity="0.1"/>
<circle cx="1358.15" cy="1255.21" r="48.8117" transform="rotate(-39.5851 1358.15 1255.21)" fill="white" fill-opacity="0.1"/>
<circle cx="984.9" cy="1787.87" r="62.1956" transform="rotate(-89.7132 984.9 1787.87)" fill="white" fill-opacity="0.1"/>
<circle cx="1128.91" cy="2277.71" r="62.1956" transform="rotate(-125.713 1128.91 2277.71)" fill="white" fill-opacity="0.1"/>
<circle cx="1533.34" cy="2589.37" r="62.1956" transform="rotate(-161.713 1533.34 2589.37)" fill="white" fill-opacity="0.1"/>
<circle cx="2043.71" cy="2603.77" r="62.1956" transform="rotate(162.287 2043.71 2603.77)" fill="white" fill-opacity="0.1"/>
<circle cx="2465.08" cy="2315.45" r="62.1956" transform="rotate(126.287 2465.08 2315.45)" fill="white" fill-opacity="0.1"/>
<circle cx="2636.5" cy="1834.51" r="62.1956" transform="rotate(90.2868 2636.5 1834.51)" fill="white" fill-opacity="0.1"/>
<circle cx="2492.49" cy="1344.66" r="62.1956" transform="rotate(54.2868 2492.49 1344.66)" fill="white" fill-opacity="0.1"/>
<circle cx="2088.06" cy="1033.02" r="62.1956" transform="rotate(18.2868 2088.06 1033.02)" fill="white" fill-opacity="0.1"/>
<circle cx="1577.69" cy="1018.61" r="62.1956" transform="rotate(-17.7132 1577.69 1018.61)" fill="white" fill-opacity="0.1"/>
<circle cx="1156.32" cy="1306.94" r="62.1956" transform="rotate(-53.7132 1156.32 1306.94)" fill="white" fill-opacity="0.1"/>
<circle cx="886.404" cy="1988.88" r="76.0667" transform="rotate(-102.898 886.404 1988.88)" fill="white" fill-opacity="0.1"/>
<circle cx="1167.38" cy="2498.23" r="76.0667" transform="rotate(-138.898 1167.38 2498.23)" fill="white" fill-opacity="0.1"/>
<circle cx="1694.08" cy="2745.16" r="76.0667" transform="rotate(-174.898 1694.08 2745.16)" fill="white" fill-opacity="0.1"/>
<circle cx="2265.31" cy="2635.33" r="76.0667" transform="rotate(149.102 2265.31 2635.33)" fill="white" fill-opacity="0.1"/>
<circle cx="2662.91" cy="2210.72" r="76.0667" transform="rotate(113.102 2662.91 2210.72)" fill="white" fill-opacity="0.1"/>
<circle cx="2734.98" cy="1633.5" r="76.0667" transform="rotate(77.1016 2734.98 1633.5)" fill="white" fill-opacity="0.1"/>
<circle cx="2454.01" cy="1124.15" r="76.0667" transform="rotate(41.1016 2454.01 1124.15)" fill="white" fill-opacity="0.1"/>
<circle cx="1927.32" cy="877.231" r="76.0667" transform="rotate(5.10157 1927.32 877.231)" fill="white" fill-opacity="0.1"/>
<circle cx="1356.08" cy="987.049" r="76.0667" transform="rotate(-30.8984 1356.08 987.049)" fill="white" fill-opacity="0.1"/>
<circle cx="958.487" cy="1411.67" r="76.0667" transform="rotate(-66.8984 958.487 1411.67)" fill="white" fill-opacity="0.1"/>
<circle cx="841.358" cy="2253.34" r="86.0618" transform="rotate(-116.554 841.358 2253.34)" fill="white" fill-opacity="0.1"/>
<circle cx="1285.93" cy="2738.21" r="86.0618" transform="rotate(-152.554 1285.93 2738.21)" fill="white" fill-opacity="0.1"/>
<circle cx="1930.63" cy="2868.94" r="86.0618" transform="rotate(171.446 1930.63 2868.94)" fill="white" fill-opacity="0.1"/>
<circle cx="2529.03" cy="2596.44" r="86.0618" transform="rotate(135.446 2529.03 2596.44)" fill="white" fill-opacity="0.1"/>
<circle cx="2853.11" cy="2023.68" r="86.0618" transform="rotate(99.4455 2853.11 2023.68)" fill="white" fill-opacity="0.1"/>
<circle cx="2778.3" cy="1370.28" r="86.0618" transform="rotate(63.4455 2778.3 1370.28)" fill="white" fill-opacity="0.1"/>
<circle cx="2333.9" cy="885.292" r="86.0618" transform="rotate(27.4455 2333.9 885.292)" fill="white" fill-opacity="0.1"/>
<circle cx="1689.28" cy="754.24" r="86.0618" transform="rotate(-8.55449 1689.28 754.24)" fill="white" fill-opacity="0.1"/>
<circle cx="1090.64" cy="1027.18" r="86.0618" transform="rotate(-44.5545 1090.64 1027.18)" fill="white" fill-opacity="0.1"/>
<circle cx="767.047" cy="1599.59" r="86.0618" transform="rotate(-80.5545 767.047 1599.59)" fill="white" fill-opacity="0.1"/>
<circle cx="878.156" cy="2542.94" r="93.7622" transform="rotate(-129.957 878.156 2542.94)" fill="white" fill-opacity="0.1"/>
<circle cx="1485.88" cy="2950.9" r="93.7622" transform="rotate(-165.957 1485.88 2950.9)" fill="white" fill-opacity="0.1"/>
<circle cx="2217.31" cy="2923.46" r="93.7622" transform="rotate(158.043 2217.31 2923.46)" fill="white" fill-opacity="0.1"/>
<circle cx="2793.07" cy="2472.06" r="93.7622" transform="rotate(122.043 2793.07 2472.06)" fill="white" fill-opacity="0.1"/>
<circle cx="2993.57" cy="1767.83" r="93.7622" transform="rotate(86.0432 2993.57 1767.83)" fill="white" fill-opacity="0.1"/>
<circle cx="2741.57" cy="1080.81" r="93.7622" transform="rotate(50.0432 2741.57 1080.81)" fill="white" fill-opacity="0.1"/>
<circle cx="2133.99" cy="672.704" r="93.7622" transform="rotate(14.0432 2133.99 672.704)" fill="white" fill-opacity="0.1"/>
<circle cx="1402.56" cy="699.778" r="93.7622" transform="rotate(-21.9568 1402.56 699.778)" fill="white" fill-opacity="0.1"/>
<circle cx="826.656" cy="1151.7" r="93.7622" transform="rotate(-57.9568 826.656 1151.7)" fill="white" fill-opacity="0.1"/>
<circle cx="626.605" cy="1855.45" r="93.7622" transform="rotate(-93.9568 626.605 1855.45)" fill="white" fill-opacity="0.1"/>
<circle cx="988.36" cy="2840.97" r="101.932" transform="rotate(-143.016 988.36 2840.97)" fill="white" fill-opacity="0.1"/>
<circle cx="1750.17" cy="3127.26" r="101.932" transform="rotate(-179.016 1750.17 3127.26)" fill="white" fill-opacity="0.1"/>
<circle cx="2534.66" cy="2910.8" r="101.932" transform="rotate(144.984 2534.66 2910.8)" fill="white" fill-opacity="0.1"/>
<circle cx="3042.45" cy="2275.3" r="101.932" transform="rotate(108.984 3042.45 2275.3)" fill="white" fill-opacity="0.1"/>
<circle cx="3079.59" cy="1462.03" r="101.932" transform="rotate(72.9843 3079.59 1462.03)" fill="white" fill-opacity="0.1"/>
<circle cx="2631.47" cy="782.932" r="101.932" transform="rotate(36.9843 2631.47 782.932)" fill="white" fill-opacity="0.1"/>
<circle cx="1869.77" cy="496.455" r="101.932" transform="rotate(0.984322 1869.77 496.455)" fill="white" fill-opacity="0.1"/>
<circle cx="1085.19" cy="712.52" r="101.932" transform="rotate(-35.0157 1085.19 712.52)" fill="white" fill-opacity="0.1"/>
<circle cx="577.375" cy="1348.61" r="101.932" transform="rotate(-71.0157 577.375 1348.61)" fill="white" fill-opacity="0.1"/>
<circle cx="540.596" cy="2161.25" r="101.932" transform="rotate(-107.016 540.596 2161.25)" fill="white" fill-opacity="0.1"/>
<circle cx="1190.95" cy="3113" r="111.531" transform="rotate(-156.173 1190.95 3113)" fill="white" fill-opacity="0.1"/>
<circle cx="2073.92" cy="3228.29" r="111.531" transform="rotate(167.827 2073.92 3228.29)" fill="white" fill-opacity="0.1"/>
<circle cx="2855.85" cy="2802.27" r="111.531" transform="rotate(131.827 2855.85 2802.27)" fill="white" fill-opacity="0.1"/>
<circle cx="3238.6" cy="1998.72" r="111.531" transform="rotate(95.8272 3238.6 1998.72)" fill="white" fill-opacity="0.1"/>
<circle cx="3075.62" cy="1122.97" r="111.531" transform="rotate(59.8272 3075.62 1122.97)" fill="white" fill-opacity="0.1"/>
<circle cx="2429.03" cy="511.032" r="111.531" transform="rotate(23.8272 2429.03 511.032)" fill="white" fill-opacity="0.1"/>
<circle cx="1546.13" cy="395.508" r="111.531" transform="rotate(-12.1728 1546.13 395.508)" fill="white" fill-opacity="0.1"/>
<circle cx="764.009" cy="821.128" r="111.531" transform="rotate(-48.1728 764.009 821.128)" fill="white" fill-opacity="0.1"/>
<circle cx="381.381" cy="1625.32" r="111.531" transform="rotate(-84.1728 381.381 1625.32)" fill="white" fill-opacity="0.1"/>
<circle cx="544.59" cy="2500.31" r="111.531" transform="rotate(-120.173 544.59 2500.31)" fill="white" fill-opacity="0.1"/>
</g>
<defs>
<clipPath id="clip0_109_6518">
<rect width="3622" height="3622" fill="white"/>
</clipPath>
</defs>
</svg>
